# AST/ASF file generated using VICON BodyLanguage
# -----------------------------------------------
:version 1.10
:name VICON
:units
  mass 1.0
  length 0.45
  angle deg
:documentation
   .ast/.asf automatically generated from VICON data using
   VICON BodyBuilder and BodyLanguage model FoxedUp or BRILLIANT.MOD
:root
   order TX TY TZ RX RY RZ
   axis XYZ
   position 0 0 0  
   orientation 0 0 0 
:bonedata
  begin
     id 1 
     name lhipjoint
     direction 0.611804 -0.747784 0.257906 
     length 2.29243 
     axis 0 0 0  XYZ
  end
  begin
     id 2 
     name lfemur
     direction 0.34202 -0.939693 0  
     length 7.31159  
     axis 0 0 20  XYZ
    dof rx ry rz
    limits (-160.0 20.0)
           (-70.0 70.0)
           (-60.0 70.0)
  end
  begin
     id 3 
     name ltibia
     direction 0.34202 -0.939693 0   
     length 7.33391   
     axis 0 0 20   XYZ
    dof rx
    limits (-10.0 170.0)
  end
  begin
     id 4 
     name lfoot
     direction 0.122263 -0.335914 0.933924   
     length 1.76083   
     axis -90 7.62852e-016 20   XYZ
    dof rx rz
    limits (-45.0 90.0)
           (-70.0 20.0)
  end
  begin
     id 5 
     name ltoes
     direction 1.53533e-011 -4.2177e-011 1   
     length 0.879206   
     axis -90 7.62852e-016 20   XYZ
    dof rx
    limits (-90.0 20.0)
  end
  begin
     id 6 
     name rhipjoint
     direction -0.646469 -0.721248 0.248754   
     length 2.37677  
     axis 0 0 0  XYZ 
  end
  begin
     id 7 
     name rfemur
     direction -0.34202 -0.939693 0   
     length 7.18623   
     axis 0 0 -20   XYZ
    dof rx ry rz
    limits (-160.0 20.0)
           (-70.0 70.0)
           (-70.0 60.0)
  end
  begin
     id 8 
     name rtibia
     direction -0.34202 -0.939693 0   
     length 7.36567   
     axis 0 0 -20   XYZ
    dof rx
    limits (-10.0 170.0)
 end
 begin
     id 9 
     name rfoot
     direction -0.126681 -0.348054 0.928876   
     length 1.71902  
     axis -90 -7.62852e-016 -20   XYZ
    dof rx rz
    limits (-45.0 90.0)
           (-20.0 70.0)
  end
  begin
     id 10 
     name rtoes
     direction -1.53551e-011 -4.21898e-011 1   
     length 0.857792   
     axis -90 -7.62852e-016 -20   XYZ
    dof rx
    limits (-90.0 20.0)
  end
  begin
     id 11 
     name lowerback
     direction 0.0106509 0.999778 0.0181844   
     length 2.07668   
     axis 0 0 0   XYZ
    dof rx ry rz
    limits (-20.0 45.0)
           (-30.0 30.0)
           (-30.0 30.0)
  end
  begin
     id 12 
     name upperback
     direction -0.00456018 0.999989 -0.000590935   
     length 2.08011   
     axis 0 0 0   XYZ
    dof rx ry rz
    limits (-20.0 45.0)
           (-30.0 30.0)
           (-30.0 30.0)
  end
  begin
     id 13 
     name thorax
     direction -0.00910382 0.999916 -0.00923765   
     length 2.07397   
     axis 0 0 0   XYZ
    dof rx ry rz
    limits (-20.0 45.0)
           (-30.0 30.0)
           (-30.0 30.0)
  end
  begin
     id 14 
     name lowerneck
     direction 0.00171967 0.99778 0.0665733   
     length 1.67556   
     axis 0 0 0   XYZ
    dof rx ry rz
    limits (-20.0 45.0)
           (-30.0 30.0)
           (-30.0 30.0)
  end
  begin
     id 15 
     name upperneck
     direction -0.0143166 0.991302 -0.130828   
     length 1.68462   
     axis 0 0 0   XYZ
    dof rx ry rz
    limits (-20.0 45.0)
           (-30.0 30.0)
           (-30.0 30.0)
  end
  begin
     id 16
     name head
     direction -0.00606378 0.998665 -0.0512995  
     length 1.69269  
     axis 0 0 0   XYZ
    dof rx ry rz
    limits (-20.0 45.0)
           (-30.0 30.0)
           (-30.0 30.0)
  end
  begin
     id 17 
     name lclavicle
     direction 0.9638 0.179341 0.197297  
     length 4.12888  
     axis 0 0 0   XYZ
    dof ry rz
    limits (-20.0 10.0)
           (0.0 20.0)
  end
  begin
     id 18 
     name lhumerus
     direction 1 -4.48972e-011 -2.47351e-027   
     length 5.01834   
     axis -180 -30 -90   XYZ
    dof rx ry rz
    limits (-60.0 90.0)
           (-90.0 90.0)
           (-90.0 90.0)
  end
  begin
     id 19
     name lradius
     direction 1 -4.48965e-011 1.51591e-026   
     length 3.4869   
     axis -180 -30 -90   XYZ
    dof rx
    limits (-10.0 170.0)
  end
  begin
     id 20
     name lwrist
     direction 1 -4.48957e-011 2.70032e-026   
     length 1.74345   
     axis -1.81515e-014 90 90   XYZ
    dof ry
    limits (-180.0 0.0)
 end
  begin
     id 21 
     name lhand
     direction 1 -4.48951e-011 5.40064e-026   
     length 0.76799   
     axis -3.44607e-014 90 90   XYZ
    dof rx rz
    limits (-90.0 90.0)
           (-45.0 45.0)
  end
  begin
     id 22 
     name lfingers
     direction 1 -4.48971e-011 1.08013e-025   
     length 0.619174   
     axis -6.89214e-014 90 90   XYZ
    dof rx
    limits (0.0 90.0)
  end
  begin
     id 23
     name lthumb
     direction 0.707107 -6.34931e-011 0.707107   
     length 0.889013   
     axis -90 45 2.85299e-015   XYZ
    dof rx rz
    limits (-45.0 45.0)
           (-45.0 45.0)
  end
  begin
     id 24 
     name rclavicle
     direction -0.961409 0.252588 0.109054   
     length 4.04305  
     axis 0 0 0   XYZ 
    dof ry rz
    limits (-10.0 20.0)
           (-20.0 0.0)
  end
  begin
     id 25 
     name rhumerus
     direction -1 -4.4897e-011 1.33872e-017  
     length 4.70164   
     axis -180 30 90   XYZ
    dof rx ry rz
    limits (-90.0 60.0)
           (-90.0 90.0)
           (-90.0 90.0)
  end
  begin
     id 26 
     name rradius
     direction -1 -4.48954e-011 1.83844e-026   
     length 3.49911   
     axis -180 30 90   XYZ
    dof rx
    limits (-10.0 170.0)
  end
  begin
     id 27 
     name rwrist
     direction -1 -4.49008e-011 2.70032e-026   
     length 1.74955   
     axis -1.81515e-014 -90 -90   XYZ
    dof ry
    limits (-180.0 0.0)
  end
  begin
     id 28
     name rhand
     direction -1 -4.48916e-011 5.40064e-026   
     length 0.739335   
     axis -3.44607e-014 -90 -90   XYZ
    dof rx rz
    limits (-90.0 90.0)
           (-45.0 45.0)
  end
  begin
     id 29
     name rfingers
     direction -1 -4.48987e-011 1.08013e-025   
     length 0.596071   
     axis -6.89214e-014 -90 -90   XYZ
    dof rx
    limits (0.0 90.0)
  end
  begin
     id 30
     name rthumb
     direction -0.707107 -6.34935e-011 0.707107   
     length 0.855843   
     axis -90 -45 -2.85299e-015   XYZ
    dof rx rz
    limits (-45.0 45.0)
           (-45.0 45.0)
  end
:hierarchy
  begin
    root lhipjoint rhipjoint lowerback
    lhipjoint lfemur
    lfemur ltibia
    ltibia lfoot
    lfoot ltoes
    rhipjoint rfemur
    rfemur rtibia
    rtibia rfoot
    rfoot rtoes
    lowerback upperback
    upperback thorax
    thorax lowerneck lclavicle rclavicle
    lowerneck upperneck
    upperneck head
    lclavicle lhumerus
    lhumerus lradius
    lradius lwrist
    lwrist lhand lthumb
    lhand lfingers
    rclavicle rhumerus
    rhumerus rradius
    rradius rwrist
    rwrist rhand rthumb
    rhand rfingers
  end

#!OML:ASF I:\salsa\salsa 7_09\Patient 1\Session 1\dancermale.ASF
:FULLY-SPECIFIED
:DEGREES
561
root -0.107977 17.1146 -7.89747 190.792 139.463 183.071
lowerback -4.83964 -0.97155 4.64863
upperback -2.87195 -1.42551 4.55152
thorax -0.247086 -0.705752 2.01686
lowerneck -2.46491 9.12718 3.96717
upperneck 11.7569 13.8057 -12.3865
head 5.08008 6.428 -3.65118
rclavicle 1.65985e-014 4.92986e-014
rhumerus -46.2185 36.0525 -116.282
rradius 88.6789
rwrist 9.52543
rhand -32.4552 4.3179
rfingers 7.12502
rthumb -5.68823 -25.5857
lclavicle 1.65985e-014 4.92986e-014
lhumerus 55.1956 -4.35848 20.0232
lradius 91.1902
lwrist 54.6119
lhand -5.56143 66.3476
lfingers 7.12502
lthumb 20.2539 984.688
rfemur -21.0769 -6.67819 22.805
rtibia 32.061
rfoot -22.5479 -24.0414
rtoes 18.0597
lfemur -30.3794 8.37547 -13.5712
ltibia 60.7375
lfoot -16.6375 4.45815
ltoes -13.3404
562
root 0.0484723 17.1617 -7.93539 190.788 141.212 183.126
lowerback -4.7962 -0.636741 4.22614
upperback -2.65 -0.981636 4.37264
thorax -0.0368805 -0.480442 2.08526
lowerneck -2.75433 8.84862 4.00355
upperneck 11.6251 13.4507 -12.7577
head 5.08623 6.22871 -3.78621
rclavicle 7.97623e-014 7.4743e-014
rhumerus -45.4252 37.0877 -117.205
rradius 88.301
rwrist 8.84372
rhand -33.7153 4.34692
rfingers 7.12502
rthumb -6.90479 -25.5205
lclavicle 7.97623e-014 7.4743e-014
lhumerus 56.2325 -2.46676 21.0389
lradius 90.0308
lwrist 53.6273
lhand -6.92005 66.1041
lfingers 7.12502
lthumb 18.9477 984.799
rfemur -20.2763 -6.36065 21.9107
rtibia 30.9361
rfoot -21.8248 -23.4238
rtoes 14.9961
lfemur -29.5997 6.1074 -12.486
ltibia 55.3706
lfoot -17.3494 6.46688
ltoes -12.5752
563
root 0.201857 17.2027 -7.97205 190.679 143.022 182.934
lowerback -4.73038 -0.279778 4.05257
upperback -2.45602 -0.5125 4.15274
thorax 0.124307 -0.24603 1.97567
lowerneck -2.92367 8.4917 4.20974
upperneck 11.1711 12.9499 -13.267
head 4.97818 5.97494 -4.01239
rclavicle 1.83876e-014 7.95139e-015
rhumerus -44.6892 37.7742 -118.066
rradius 88.1061
rwrist 8.46478
rhand -35.0206 4.2821
rfingers 7.12502
rthumb -8.16461 -25.5402
lclavicle 1.83876e-014 7.95139e-015
lhumerus 57.0949 -0.630721 21.8997
lradius 89.0465
lwrist 51.4043
lhand -8.22894 66.0552
lfingers 7.12502
lthumb 17.6885 984.729
rfemur -19.5681 -5.62577 21.2709
rtibia 29.8558
rfoot -21.7178 -22.8674
rtoes 13.7307
lfemur -28.6107 3.83464 -11.0897
ltibia 49.7569
lfoot -17.8453 7.95593
ltoes -8.98394
564
root 0.354994 17.2385 -8.00648 190.469 144.977 182.575
lowerback -4.51015 0.101399 4.05373
upperback -2.35402 -0.000329851 3.89772
thorax 0.104421 0.00626007 1.73505
lowerneck -3.18018 8.27842 3.71692
upperneck 11.0723 12.5597 -12.5302
head 4.87762 5.78778 -3.72994
rclavicle 1.60022e-014 1.90833e-014
rhumerus -44.1039 38.1643 -118.962
rradius 87.9661
rwrist 8.37577
rhand -36.7468 4.2412
rfingers 7.12502
rthumb -9.83032 -25.5093
lclavicle 1.60022e-014 1.90833e-014
lhumerus 57.8044 1.09628 22.6162
lradius 88.1355
lwrist 48.7603
lhand -9.55484 65.7907
lfingers 7.12502
lthumb 16.4123 984.884
rfemur -18.9152 -4.34883 20.8366
rtibia 28.7901
rfoot -21.4429 -22.5092
rtoes 13.4626
lfemur -27.3958 1.89879 -9.53016
ltibia 44.0284
lfoot -18.0098 8.71496
ltoes -7.07305
565
root 0.500488 17.2715 -8.02836 189.971 147.401 181.971
lowerback -4.04224 0.560593 3.95206
upperback -2.29068 0.639066 3.77612
thorax -0.0914055 0.322275 1.69029
lowerneck -3.59329 8.10184 3.11538
upperneck 11.5309 12.2674 -11.5308
head 4.96417 5.63179 -3.32955
rclavicle -5.34731e-014 -9.54166e-015
rhumerus -43.7157 38.3921 -119.776
rradius 87.8768
rwrist 8.70723
rhand -39.0395 4.23003
rfingers 7.12502
rthumb -12.0418 -25.4035
lclavicle -5.34731e-014 -9.54166e-015
lhumerus 58.1251 2.62132 23.3473
lradius 87.4985
lwrist 46.9558
lhand -11.0924 65.2275
lfingers 7.12502
lthumb 14.9315 985.331
rfemur -18.1657 -2.28114 20.7018
rtibia 27.7806
rfoot -20.8801 -22.2793
rtoes 13.2346
lfemur -25.6063 0.681732 -7.67272
ltibia 38.1206
lfoot -17.7591 8.48474
ltoes -4.8271
